<?xml version="1.0" encoding="utf-8"?>
<!-- Generator: Adobe Illustrator 21.0.0, SVG Export Plug-In . SVG Version: 6.00 Build 0)  -->
<svg version="1.1" id="图层_1" xmlns="http://www.w3.org/2000/svg" xmlns:xlink="http://www.w3.org/1999/xlink" x="0px" y="0px"
	 viewBox="0 0 297 297" style="enable-background:new 0 0 297 297;" xml:space="preserve">
<style type="text/css">
	.st0{fill:#A5A5A5;}
	.st1{fill:#FFFFFF;}
</style>
<path class="st0" d="M187.2,216.4L187.2,216.4l4.6-32.5l19.5-12.1c3.3-2.1,5-5.8,4.5-9.6l-7.5-52.5c-3.1-20.1-20.8-36.5-39.8-36.9
	c10.8-7.1,18-19.3,18-33.3C186.5,17.8,168.8,0,147,0c-21.8,0-39.5,17.8-39.5,39.6c0,13.9,7.2,26.2,18,33.3
	c-19,0.4-36.7,16.8-39.8,36.9l-7.5,52.4c-0.5,3.8,1.2,7.6,4.5,9.6l19.5,12.1l4.7,32.9c-35.2,5.3-64,17.9-64,38.6
	C43.1,284,97.7,297,148.5,297S254,284,254,255.5C254,234.2,223.7,221.5,187.2,216.4z M213.3,268.8l-0.1,0.1
	c-17.1,5.7-40.1,8.9-64.7,8.9s-47.5-3.1-64.7-8.9c-16.2-5.4-21.5-11.4-21.5-13.4c0-2.1,5.2-8,21.5-13.4c7.6-2.6,16.4-4.6,25.9-6.1
	l2.2,15.8c1.5,11.2,11.1,20,21.9,20h26.4c10.8,0,20.4-8.8,21.9-20l2.3-16.2c10.7,1.5,20.5,3.6,28.8,6.4
	c16.2,5.4,21.5,11.3,21.5,13.4C234.7,257.4,229.5,263.4,213.3,268.8z"/>
<path class="st1" d="M167.1,39.7c0,11.2-9,20.3-20.1,20.3c-11.1,0-20.1-9.1-20.1-20.3c0-11.2,9-20.3,20.1-20.3
	C158.1,19.4,167.1,28.5,167.1,39.7z"/>
<path class="st1" d="M195.6,158.4l-17.9,11.1c-2.4,1.5-4.1,4-4.5,6.9l-10.3,72.3c0,0,0,0.1,0,0.1c-0.2,1.9-1.9,3.2-2.7,3.2h-26.4
	c-0.8,0-2.4-1.4-2.7-3.2c0,0,0-0.1,0-0.1l-10.3-72.3c-0.4-2.8-2-5.3-4.5-6.8l-17.9-11.1l6.6-46c1.7-11.1,11.4-20.4,21.3-20.4h41.5
	c9.9,0,19.6,9.3,21.3,20.3L195.6,158.4z"/>
</svg>
