<?xml version="1.0" encoding="utf-8"?>
<!-- Generator: Adobe Illustrator 21.0.0, SVG Export Plug-In . SVG Version: 6.00 Build 0)  -->
<svg version="1.1" id="Capa_1" xmlns="http://www.w3.org/2000/svg" xmlns:xlink="http://www.w3.org/1999/xlink" x="0px" y="0px"
	 viewBox="0 0 512 512" style="enable-background:new 0 0 512 512;" xml:space="preserve">
<style type="text/css">
	.st0{fill:#9c721d;}
	.st1{filter:url(#Adobe_OpacityMaskFilter);}
	.st2{mask:url(#SVGID_1_);fill:#FFFFFF;}
</style>
<g>
	<g>
		<path class="st0" d="M481.3,230.9c0,13.5,0,271,0,271H286.8c-6.9,6.2-17,10.1-28.3,10.1s-21.4-3.9-28.3-10.1H30.7
			c0,0,0-232.7,0-271c0-7.3,8.4-11.9,21.8-14.4v-26.3l4.1-1.6C58,188,91.3,175,135.8,175c2.4,0,4.7,0.2,7.1,0.3v12.9
			c-2.4-0.1-4.7-0.3-7.1-0.3c-33.4,0-60.5,7.8-70.4,11.2v263.1c17.1-6.8,37-10.3,59.6-10.3c57.2,0,114.2,21.7,130.8,28.5V375.8
			l-7.6,8.4v-74.9h19.5v74.9l-7.6-8.4v104.6c16.4-7.2,70.7-29.1,127.8-29.1c23.3,0,44.3,3.7,62.6,11.1V199.2
			c-8.9-2.9-31.4-9.5-59.7-10.9v-13c39,1.8,67.2,12.7,68.5,13.2l4.1,1.6v28.4C474.6,221,481.3,224.9,481.3,230.9z"/>
		<polygon class="st0" points="401,95 127.2,95 127.2,112.3 154,112.3 154,252.2 180.8,252.2 180.8,112.3 215.3,112.3 215.3,252.2
			242.1,252.2 242.1,112.3 287,112.3 287,252.2 313.8,252.2 313.8,112.3 348.3,112.3 348.3,252.2 375.1,252.2 375.1,112.3
			401,112.3 		"/>
		<polygon class="st0" points="266.3,0 113.4,87 416.5,87 		"/>
		<path class="st0" d="M401,257.4h-10.8c-79.4,0-158.9,0-238.3,0c-3.2,0-6.3,0-9.5,0c-4.2,0-8.4,0-12.6,0v19.8h-9.5v19.9h291.9
			v-19.9H401v-9.9V257.4z"/>
	</g>
</g>
<g id="图层_3">
	<defs>
		<filter id="Adobe_OpacityMaskFilter" filterUnits="userSpaceOnUse" x="19" y="0" width="482.5" height="512">
			<feColorMatrix  type="matrix" values="1 0 0 0 0  0 1 0 0 0  0 0 1 0 0  0 0 0 1 0"/>
		</filter>
	</defs>
	<mask maskUnits="userSpaceOnUse" x="19" y="0" width="482.5" height="512" id="SVGID_1_">
		<g class="st1">
		</g>
	</mask>
	<rect x="19" y="0" class="st2" width="482.5" height="512"/>
</g>
</svg>
